<mxfile host="app.diagrams.net" modified="2024-03-11T02:55:17.466Z" agent="Mozilla/5.0 (Windows NT 10.0; Win64; x64) AppleWebKit/537.36 (KHTML, like Gecko) Chrome/122.0.0.0 Safari/537.36 Edg/122.0.0.0" etag="SfrNfHxiNQkeUDbjs5Sb" version="24.0.4" type="google">
  <diagram id="C5RBs43oDa-KdzZeNtuy" name="Page-1">
    <mxGraphModel grid="1" page="1" gridSize="10" guides="1" tooltips="1" connect="1" arrows="1" fold="1" pageScale="1" pageWidth="827" pageHeight="1169" math="0" shadow="0">
      <root>
        <mxCell id="WIyWlLk6GJQsqaUBKTNV-0" />
        <mxCell id="WIyWlLk6GJQsqaUBKTNV-1" parent="WIyWlLk6GJQsqaUBKTNV-0" />
        <mxCell id="WFAVMFUm-UTz-qqWV0Gg-2" value="" style="edgeStyle=orthogonalEdgeStyle;rounded=0;orthogonalLoop=1;jettySize=auto;html=1;" edge="1" parent="WIyWlLk6GJQsqaUBKTNV-1" source="WFAVMFUm-UTz-qqWV0Gg-0" target="WFAVMFUm-UTz-qqWV0Gg-1">
          <mxGeometry relative="1" as="geometry" />
        </mxCell>
        <mxCell id="WFAVMFUm-UTz-qqWV0Gg-0" value="&lt;font style=&quot;font-size: 18px;&quot;&gt;&lt;b&gt;Start&lt;/b&gt;&lt;/font&gt;" style="ellipse;whiteSpace=wrap;html=1;" vertex="1" parent="WIyWlLk6GJQsqaUBKTNV-1">
          <mxGeometry x="320" y="60" width="120" height="80" as="geometry" />
        </mxCell>
        <mxCell id="WFAVMFUm-UTz-qqWV0Gg-4" value="" style="edgeStyle=orthogonalEdgeStyle;rounded=0;orthogonalLoop=1;jettySize=auto;html=1;" edge="1" parent="WIyWlLk6GJQsqaUBKTNV-1" source="WFAVMFUm-UTz-qqWV0Gg-1" target="WFAVMFUm-UTz-qqWV0Gg-3">
          <mxGeometry relative="1" as="geometry" />
        </mxCell>
        <mxCell id="WFAVMFUm-UTz-qqWV0Gg-1" value="Input R" style="shape=parallelogram;perimeter=parallelogramPerimeter;whiteSpace=wrap;html=1;fixedSize=1;" vertex="1" parent="WIyWlLk6GJQsqaUBKTNV-1">
          <mxGeometry x="320" y="230" width="120" height="60" as="geometry" />
        </mxCell>
        <mxCell id="WFAVMFUm-UTz-qqWV0Gg-6" value="" style="edgeStyle=orthogonalEdgeStyle;rounded=0;orthogonalLoop=1;jettySize=auto;html=1;" edge="1" parent="WIyWlLk6GJQsqaUBKTNV-1" source="WFAVMFUm-UTz-qqWV0Gg-3" target="WFAVMFUm-UTz-qqWV0Gg-5">
          <mxGeometry relative="1" as="geometry" />
        </mxCell>
        <mxCell id="WFAVMFUm-UTz-qqWV0Gg-3" value="P=2*3.14*R" style="whiteSpace=wrap;html=1;" vertex="1" parent="WIyWlLk6GJQsqaUBKTNV-1">
          <mxGeometry x="320" y="370" width="120" height="60" as="geometry" />
        </mxCell>
        <mxCell id="WFAVMFUm-UTz-qqWV0Gg-8" value="" style="edgeStyle=orthogonalEdgeStyle;rounded=0;orthogonalLoop=1;jettySize=auto;html=1;" edge="1" parent="WIyWlLk6GJQsqaUBKTNV-1" source="WFAVMFUm-UTz-qqWV0Gg-5">
          <mxGeometry relative="1" as="geometry">
            <mxPoint x="380" y="640" as="targetPoint" />
          </mxGeometry>
        </mxCell>
        <mxCell id="WFAVMFUm-UTz-qqWV0Gg-5" value="Display R" style="shape=parallelogram;perimeter=parallelogramPerimeter;whiteSpace=wrap;html=1;fixedSize=1;" vertex="1" parent="WIyWlLk6GJQsqaUBKTNV-1">
          <mxGeometry x="320" y="510" width="120" height="60" as="geometry" />
        </mxCell>
        <mxCell id="WFAVMFUm-UTz-qqWV0Gg-9" value="&lt;font style=&quot;font-size: 18px;&quot;&gt;&lt;b&gt;End&lt;/b&gt;&lt;/font&gt;" style="ellipse;whiteSpace=wrap;html=1;" vertex="1" parent="WIyWlLk6GJQsqaUBKTNV-1">
          <mxGeometry x="320" y="640" width="120" height="80" as="geometry" />
        </mxCell>
        <mxCell id="WFAVMFUm-UTz-qqWV0Gg-11" value="&lt;font style=&quot;font-size: 24px;&quot;&gt;&lt;b&gt;Prototype: P chuvi(R)&lt;/b&gt;&lt;/font&gt;" style="text;html=1;align=center;verticalAlign=middle;whiteSpace=wrap;rounded=0;" vertex="1" parent="WIyWlLk6GJQsqaUBKTNV-1">
          <mxGeometry width="270" height="110" as="geometry" />
        </mxCell>
      </root>
    </mxGraphModel>
  </diagram>
</mxfile>
